HIERARCHY
ROOT ui
{
	 OFFSET 0 0 0
	 CHANNELS 3 XPosition YPosition Z Position
	 EndSite
	 {
	 OFFSET 0 -1 0
	 }
}
ROOT li
{
	 OFFSET 0 0 0
	 CHANNELS 3 XPosition YPosition Z Position
	 EndSite
	 {
	 OFFSET 0 -1 0
	 }
}
ROOT ul
{
	 OFFSET 0 0 0
	 CHANNELS 3 XPosition YPosition Z Position
	 EndSite
	 {
	 OFFSET 0 -1 0
	 }
}
ROOT ll
{
	 OFFSET 0 0 0
	 CHANNELS 3 XPosition YPosition Z Position
	 EndSite
	 {
	 OFFSET 0 -1 0
	 }
}
ROOT tt
{
	 OFFSET 0 0 0
	 CHANNELS 3 XPosition YPosition Z Position
	 EndSite
	 {
	 OFFSET 0 -1 0
	 }
}
ROOT tb
{
	 OFFSET 0 0 0
	 CHANNELS 3 XPosition YPosition Z Position
	 EndSite
	 {
	 OFFSET 0 -1 0
	 }
}
ROOT td
{
	 OFFSET 0 0 0
	 CHANNELS 3 XPosition YPosition Z Position
	 EndSite
	 {
	 OFFSET 0 -1 0
	 }
}
ROOT v
{
	 OFFSET 0 0 0
	 CHANNELS 3 XPosition YPosition Z Position
	 EndSite
	 {
	 OFFSET 0 -1 0
	 }
}
ROOT bn
{
	 OFFSET 0 0 0
	 CHANNELS 3 XPosition YPosition Z Position
	 EndSite
	 {
	 OFFSET 0 -1 0
	 }
}
MOTION
Frames: 10
Frame Time: 0.002
-0.0051071767807006835	-2.5696200132369995E-4	0		0.5674942016601563	-2.36404052734375	0		-1.1455018310546874	0.07811377716064453	0		-0.6208070068359375	-2.6392880859375	0		1.53194482421875	-0.608904052734375	0		3.291798095703125	-0.02534117317199707	0		4.67572900390625	0.08229376220703125	0		5.61453515625	0.1602632293701172	0		-0.30706353759765626	5.8494208984375	0		
0.019939601898193358	-5.008119940757751E-4	0		0.566343505859375	-2.36411669921875	0		-1.134531005859375	0.06808213806152344	0		-0.6569546508789063	-2.63597412109375	0		1.53094140625	-0.6090610961914062	0		3.318942138671875	-0.013878666877746582	0		4.6767998046875	0.08385626220703125	0		5.60671875	0.16128228759765625	0		-0.2934259338378906	5.8613017578125	0		
-0.007035140991210938	-3.070990145206451E-4	0		0.5382033081054688	-2.360958740234375	0		-1.1355010986328125	0.06815108489990235	0		-0.6482102661132813	-2.64402734375	0		1.5299166259765624	-0.6092070922851562	0		3.29290771484375	-0.020959117889404296	0		4.6688818359375	0.08951502990722657	0		5.61445068359375	0.1256982879638672	0		-0.3080289306640625	5.84942041015625	0		
0.017981407165527343	-5.410090088844299E-4	0		0.5749710083007813	-2.36933544921875	0		-1.1324447021484374	0.07218950653076171	0		-0.6813349609375	-2.636721923828125	0		1.49093115234375	-0.6040177612304688	0		3.312041259765625	-0.0073955669403076175	0		4.67283837890625	0.0811008071899414	0		5.61663330078125	0.13698912048339842	0		-0.2944708557128906	5.860310546875	0		
-0.005958182811737061	0.003649050951004028	0		0.5669117431640625	-2.359322265625	0		-1.0944154052734374	0.07193366241455078	0		-0.6564572143554688	-2.6318994140625	0		1.5309031982421875	-0.6054791259765625	0		3.299938720703125	-0.022543869018554687	0		4.67592919921875	0.08772599792480469	0		5.614623046875	0.17091940307617187	0		-0.29502423095703123	5.8603271484375	0		
0.019087997436523438	0.0034331119060516356	0		0.5617589111328125	-2.364318115234375	0		-1.1343623046875	0.07234874725341797	0		-0.6596024780273437	-2.63383154296875	0		1.52687548828125	-0.6095479125976563	0		3.319094970703125	-0.009928604125976563	0		4.66599072265625	0.0884994125366211	0		5.6110322265625	0.15651348876953125	0		-0.2955875244140625	5.86035400390625	0		
-0.010865120887756348	-2.9674398899078366E-4	0		0.5606956787109375	-2.36433203125	0		-1.1122353515625	0.07723845672607423	0		-0.5917451782226563	-2.6413681640625	0		1.5259188232421874	-0.609620361328125	0		3.31907080078125	-0.02211796760559082	0		4.67202392578125	0.08217620086669922	0		5.6103671875	0.1559668731689453	0		-0.2771871948242188	5.8562275390625	0		
0.014258063316345215	-4.88631010055542E-4	0		0.5686211547851563	-2.37240673828125	0		-1.1361495361328124	0.07253349304199219	0		-0.6617012329101563	-2.633701416015625	0		1.529957275390625	-0.6157127685546875	0		3.280212646484375	-0.01993384552001953	0		4.664205078125	0.08801651763916016	0		5.605505859375	0.16943359375	0		-0.2616663818359375	5.86513720703125	0		
0.016470556259155274	0.0035325260162353514	0		0.58065771484375	-2.37549951171875	0		-1.1259776611328125	0.07154016876220703	0		-0.64868603515625	-2.63774365234375	0		1.5001326904296874	-0.6124843139648437	0		3.336238037109375	-0.03754204940795899	0		4.6763076171875	0.07872669219970703	0		5.6197529296875	0.13067941284179688	0		-0.29526638793945315	5.8584873046875	0		
0.02965536117553711	-0.002528228998184204	0		0.5728841552734375	-2.36539990234375	0		-1.1326923828125	0.07670298767089843	0		-0.6475413818359375	-2.635671142578125	0		1.54032568359375	-0.6148451538085937	0		3.318765625	-0.004471023082733155	0		4.67161962890625	0.08662798309326172	0		5.61498681640625	0.14777516174316407	0		-0.29677337646484375	5.8595712890625	0		
